<?xml version="1.0" encoding="utf-8"?>
<!-- Generator: Adobe Illustrator 23.0.5, SVG Export Plug-In . SVG Version: 6.00 Build 0)  -->
<svg version="1.1" id="Layer_1" xmlns="http://www.w3.org/2000/svg" xmlns:xlink="http://www.w3.org/1999/xlink" x="0px" y="0px"
	 viewBox="0 0 564.83 142.76" style="enable-background:new 0 0 564.83 142.76;" xml:space="preserve">
<style type="text/css">
	.st0{fill:#8C8D93;}
	.st1{fill:#717278;}
	.st2{fill:#8C8D94;}
	.st3{fill:#6F7176;}
	.st4{fill:#F280A1;}
	.st5{fill:#70C16B;}
	.st6{fill:#FFFFFF;}
	.st7{fill:#40403F;}
	.st8{fill:#F48DA5;}
</style>
<path class="st0" d="M877.35,308.85c0.95,0.41,1.01,1.19,0.85,2.06c-0.31,0.42-0.59,0.4-0.85-0.06
	C877.35,310.18,877.35,309.52,877.35,308.85z"/>
<path class="st1" d="M877.35,278.85c1.17,0.26,0.94,1.13,0.84,1.94c-0.24,0.52-0.52,0.57-0.84,0.06
	C877.35,280.18,877.35,279.52,877.35,278.85z"/>
<path class="st2" d="M877.35,280.85c0.28,0.02,0.56,0,0.84-0.06c0.17,0.87,0.12,1.65-0.84,2.06
	C877.35,282.18,877.35,281.52,877.35,280.85z"/>
<path class="st3" d="M877.35,310.85c0.28-0.02,0.57,0,0.85,0.06c0.11,0.82,0.38,1.71-0.85,1.94
	C877.35,312.18,877.35,311.52,877.35,310.85z"/>
<path class="st4" d="M81.13,31.39c1.13-1.04,2.49-2.15,3.68-3.42c4.3-4.61,9.22-8.32,15.17-10.51c9.92-3.64,19.58-3.24,28.79,2.23
	c5.63,3.35,9.6,8.28,12.6,14.01c4.75,9.09,5.1,18.56,2.24,28.25c-2.1,7.12-5.64,13.53-9.86,19.59
	c-5.44,7.82-11.89,14.75-18.75,21.33c-7.6,7.3-15.78,13.9-24.16,20.28c-3.03,2.3-6.11,4.52-9.16,6.8c-0.38,0.28-0.64,0.34-1.06,0.04
	c-9.79-7.1-19.39-14.45-28.41-22.52c-7.76-6.95-15.05-14.34-21.34-22.67c-4.83-6.4-8.96-13.2-11.58-20.83
	c-1.89-5.5-2.81-11.15-2.32-16.97c0.56-6.59,2.95-12.52,6.72-17.92c3.64-5.22,8.28-9.22,14.2-11.63c5.38-2.19,10.96-2.81,16.69-1.98
	c9.17,1.33,16.62,5.79,22.86,12.5C78.64,29.26,80.01,30.36,81.13,31.39z"/>
<path class="st5" d="M91.94,35.47c-0.09,0.02-0.18,0.04-0.27,0.07c0.06-0.08,0.12-0.16,0.19-0.24
	C91.89,35.35,91.92,35.41,91.94,35.47z"/>
<path class="st6" d="M109.96,107.57c-9.65-5.37-19.29-10.74-28.94-16.11c-9.05,5.83-18.11,11.65-27.16,17.48
	c2.59-10.56,5.18-21.11,7.77-31.67C53.71,70.64,45.79,64,37.87,57.36c10.42-0.97,20.84-1.94,31.26-2.91
	c4.08-8.78,8.17-17.55,12.25-26.33c3.92,8.8,7.85,17.6,11.77,26.41c9.94,1.22,19.88,2.44,29.83,3.66
	C115.48,64.59,107.99,71,100.5,77.4C103.65,87.46,106.8,97.52,109.96,107.57z"/>
<g>
	<path class="st4" d="M171.19,48.5v14.98c0,4.48,1.7,6.76,4.71,6.76c3.09,0,4.79-2.16,4.79-6.76V48.5h5.87v14.6
		c0,8.03-4.06,11.86-10.85,11.86c-6.57,0-10.43-3.63-10.43-11.93V48.5H171.19z"/>
	<path class="st4" d="M191.85,68.47c1.58,0.81,4.02,1.62,6.53,1.62c2.7,0,4.13-1.12,4.13-2.82c0-1.62-1.24-2.55-4.36-3.67
		c-4.33-1.51-7.14-3.9-7.14-7.69c0-4.44,3.71-7.84,9.85-7.84c2.94,0,5.1,0.62,6.64,1.31l-1.31,4.75c-1.04-0.5-2.9-1.24-5.45-1.24
		s-3.78,1.16-3.78,2.51c0,1.66,1.47,2.39,4.83,3.67c4.6,1.7,6.76,4.09,6.76,7.76c0,4.36-3.36,8.07-10.5,8.07
		c-2.97,0-5.91-0.77-7.38-1.58L191.85,68.47z"/>
	<path class="st4" d="M217.53,53.45h-6.99V48.5h20.01v4.94h-7.11v21.09h-5.91V53.45z"/>
	<path class="st4" d="M236.95,67.85l-1.85,6.68h-6.1l7.96-26.03h7.72l8.07,26.03h-6.33l-2.01-6.68H236.95z M243.55,63.45l-1.62-5.52
		c-0.46-1.54-0.93-3.48-1.31-5.02h-0.08c-0.39,1.54-0.77,3.51-1.2,5.02l-1.54,5.52H243.55z"/>
	<path class="st4" d="M256.22,48.85c1.89-0.31,4.71-0.54,7.84-0.54c3.86,0,6.57,0.58,8.42,2.05c1.54,1.24,2.39,3.05,2.39,5.45
		c0,3.32-2.36,5.6-4.6,6.41v0.12c1.82,0.73,2.82,2.47,3.48,4.87c0.81,2.94,1.62,6.33,2.12,7.34h-6.02
		c-0.42-0.73-1.04-2.86-1.81-6.06c-0.7-3.24-1.82-4.13-4.21-4.17h-1.78v10.23h-5.83V48.85z M262.05,60.05h2.32
		c2.94,0,4.67-1.47,4.67-3.75c0-2.39-1.62-3.59-4.33-3.63c-1.43,0-2.24,0.12-2.67,0.19V60.05z"/>
	<path class="st4" d="M306.03,73.8c-1.08,0.54-3.51,1.12-6.68,1.12c-9,0-13.63-5.6-13.63-13.01c0-8.88,6.33-13.83,14.21-13.83
		c3.05,0,5.37,0.62,6.41,1.16l-1.2,4.67c-1.2-0.5-2.86-0.97-4.94-0.97c-4.67,0-8.3,2.82-8.3,8.61c0,5.21,3.09,8.5,8.34,8.5
		c1.78,0,3.75-0.39,4.9-0.85L306.03,73.8z"/>
	<path class="st4" d="M316.33,67.85l-1.85,6.68h-6.1l7.96-26.03h7.72l8.07,26.03h-6.33l-2.01-6.68H316.33z M322.94,63.45l-1.62-5.52
		c-0.46-1.54-0.93-3.48-1.31-5.02h-0.08c-0.39,1.54-0.77,3.51-1.2,5.02l-1.54,5.52H322.94z"/>
	<path class="st4" d="M335.6,48.85c1.89-0.31,4.71-0.54,7.84-0.54c3.86,0,6.57,0.58,8.42,2.05c1.54,1.24,2.39,3.05,2.39,5.45
		c0,3.32-2.36,5.6-4.6,6.41v0.12c1.82,0.73,2.82,2.47,3.48,4.87c0.81,2.94,1.62,6.33,2.12,7.34h-6.02
		c-0.42-0.73-1.04-2.86-1.82-6.06c-0.69-3.24-1.81-4.13-4.21-4.17h-1.78v10.23h-5.83V48.85z M341.43,60.05h2.32
		c2.94,0,4.67-1.47,4.67-3.75c0-2.39-1.62-3.59-4.33-3.63c-1.43,0-2.24,0.12-2.66,0.19V60.05z"/>
	<path class="st4" d="M373.98,63.52h-9.58v6.18h10.7v4.83H358.5V48.5h16.07v4.83h-10.16v5.41h9.58V63.52z"/>
	<path class="st4" d="M387.11,68.47c1.58,0.81,4.02,1.62,6.53,1.62c2.7,0,4.13-1.12,4.13-2.82c0-1.62-1.24-2.55-4.36-3.67
		c-4.33-1.51-7.14-3.9-7.14-7.69c0-4.44,3.71-7.84,9.85-7.84c2.94,0,5.1,0.62,6.64,1.31l-1.31,4.75c-1.04-0.5-2.9-1.24-5.45-1.24
		s-3.79,1.16-3.79,2.51c0,1.66,1.47,2.39,4.83,3.67c4.6,1.7,6.76,4.09,6.76,7.76c0,4.36-3.36,8.07-10.5,8.07
		c-2.97,0-5.91-0.77-7.38-1.58L387.11,68.47z"/>
	<path class="st4" d="M423.25,63.52h-9.58v6.18h10.7v4.83h-16.61V48.5h16.07v4.83h-10.16v5.41h9.58V63.52z"/>
	<path class="st4" d="M428.39,48.85c1.89-0.31,4.71-0.54,7.84-0.54c3.86,0,6.57,0.58,8.42,2.05c1.54,1.24,2.39,3.05,2.39,5.45
		c0,3.32-2.36,5.6-4.6,6.41v0.12c1.82,0.73,2.82,2.47,3.48,4.87c0.81,2.94,1.62,6.33,2.12,7.34h-6.02
		c-0.42-0.73-1.04-2.86-1.82-6.06c-0.69-3.24-1.81-4.13-4.21-4.17h-1.78v10.23h-5.83V48.85z M434.22,60.05h2.32
		c2.94,0,4.67-1.47,4.67-3.75c0-2.39-1.62-3.59-4.33-3.63c-1.43,0-2.24,0.12-2.66,0.19V60.05z"/>
	<path class="st4" d="M457.19,74.53l-8.34-26.03h6.45l3.17,11.01c0.89,3.09,1.7,6.06,2.32,9.31h0.12c0.66-3.13,1.47-6.22,2.36-9.19
		l3.32-11.12h6.26l-8.77,26.03H457.19z"/>
	<path class="st4" d="M481.52,48.5v26.03h-5.91V48.5H481.52z"/>
	<path class="st4" d="M505.73,73.8c-1.08,0.54-3.51,1.12-6.68,1.12c-9,0-13.63-5.6-13.63-13.01c0-8.88,6.33-13.83,14.21-13.83
		c3.05,0,5.37,0.62,6.41,1.16l-1.2,4.67c-1.2-0.5-2.86-0.97-4.94-0.97c-4.67,0-8.3,2.82-8.3,8.61c0,5.21,3.09,8.5,8.34,8.5
		c1.78,0,3.75-0.39,4.9-0.85L505.73,73.8z"/>
	<path class="st4" d="M525.07,63.52h-9.58v6.18h10.7v4.83h-16.61V48.5h16.07v4.83H515.5v5.41h9.58V63.52z"/>
	<path class="st4" d="M530.4,68.47c1.58,0.81,4.02,1.62,6.53,1.62c2.7,0,4.13-1.12,4.13-2.82c0-1.62-1.24-2.55-4.36-3.67
		c-4.33-1.51-7.14-3.9-7.14-7.69c0-4.44,3.71-7.84,9.85-7.84c2.94,0,5.1,0.62,6.64,1.31l-1.31,4.75c-1.04-0.5-2.9-1.24-5.45-1.24
		s-3.79,1.16-3.79,2.51c0,1.66,1.47,2.39,4.83,3.67c4.6,1.7,6.76,4.09,6.76,7.76c0,4.36-3.36,8.07-10.5,8.07
		c-2.97,0-5.91-0.77-7.38-1.58L530.4,68.47z"/>
</g>
<g>
	<path class="st7" d="M169.88,95.68h-3.09v-1.23h8.12v1.23h-3.09v10.75h-1.94V95.68z"/>
	<path class="st7" d="M200.54,94.46v5.13h4.75v-5.13h1.94v11.97h-1.94v-5.59h-4.75v5.59h-1.94V94.46H200.54z"/>
	<path class="st7" d="M238.23,100.74h-4.25v4.49h4.83v1.19h-6.76V94.46h6.46v1.19h-4.53v3.94h4.25V100.74z"/>
	<path class="st7" d="M262.75,94.63c0.83-0.16,1.84-0.23,2.79-0.23c1.69,0,2.94,0.25,3.82,0.85c0.83,0.6,1.18,1.4,1.18,2.34
		c0,1.53-1.01,2.52-2.72,3.07v0.04c1.26,0.27,1.91,1.12,2.29,2.68c0.38,1.65,0.73,2.66,0.96,3.04h-1.96
		c-0.25-0.36-0.58-1.49-0.91-2.97c-0.38-1.63-1.11-2.26-2.77-2.26h-0.75v5.22h-1.94V94.63z M264.69,100.16h0.8
		c1.86,0,3.09-0.96,3.09-2.4c0-1.38-0.8-2.24-2.89-2.25c-0.38,0-0.75,0.02-1.01,0.07V100.16z"/>
	<path class="st7" d="M301.02,100.74h-4.25v4.49h4.83v1.19h-6.76V94.46h6.46v1.19h-4.53v3.94h4.25V100.74z"/>
	<path class="st7" d="M351.29,94.46h6.46v1.19h-4.53v4.19h4.22v1.16h-4.22v5.43h-1.94V94.46z"/>
	<path class="st7" d="M390.67,100.35c0,4.49-2.19,6.22-4.9,6.22c-2.82,0-4.7-2.11-4.7-6.15c0-3.96,2.01-6.11,4.98-6.11
		C388.93,94.31,390.67,96.54,390.67,100.35z M383.08,100.44c0,2.47,0.68,4.92,2.82,4.92c2.19,0,2.77-2.61,2.77-4.96
		c0-2.24-0.58-4.88-2.79-4.88C383.75,95.52,383.08,98.01,383.08,100.44z"/>
	<path class="st7" d="M414.79,94.63c0.83-0.16,1.84-0.23,2.79-0.23c1.68,0,2.94,0.25,3.82,0.85c0.83,0.6,1.18,1.4,1.18,2.34
		c0,1.53-1.01,2.52-2.72,3.07v0.04c1.26,0.27,1.91,1.12,2.29,2.68c0.38,1.65,0.73,2.66,0.96,3.04h-1.96
		c-0.25-0.36-0.58-1.49-0.91-2.97c-0.38-1.63-1.11-2.26-2.77-2.26h-0.75v5.22h-1.94V94.63z M416.72,100.16h0.8
		c1.86,0,3.09-0.96,3.09-2.4c0-1.38-0.8-2.24-2.89-2.25c-0.38,0-0.75,0.02-1.01,0.07V100.16z"/>
	<path class="st7" d="M474.21,106.43v-5.06l-3.72-6.91h2.04l1.51,3c0.43,0.83,0.88,1.78,1.26,2.7h0.05
		c0.35-0.92,0.78-1.83,1.23-2.75l1.43-2.95h2.04l-3.9,6.86v5.12H474.21z"/>
	<path class="st7" d="M511.65,100.35c0,4.49-2.19,6.22-4.9,6.22c-2.82,0-4.7-2.11-4.7-6.15c0-3.96,2.01-6.11,4.98-6.11
		C509.92,94.31,511.65,96.54,511.65,100.35z M504.06,100.44c0,2.47,0.68,4.92,2.82,4.92c2.19,0,2.77-2.61,2.77-4.96
		c0-2.24-0.58-4.88-2.79-4.88C504.73,95.52,504.06,98.01,504.06,100.44z"/>
	<path class="st7" d="M537.68,94.46v8.03c0,2.15,1.01,2.88,2.31,2.88c1.43,0,2.34-0.78,2.34-2.88v-8.03h1.94v7.81
		c0,3.11-1.81,4.3-4.32,4.3c-2.54,0-4.2-1.17-4.2-4.14v-7.97H537.68z"/>
</g>
<path class="st8" d="M64.29-122.54c1.13-1.04,2.49-2.15,3.68-3.42c4.3-4.61,9.22-8.32,15.17-10.51c9.92-3.64,19.58-3.24,28.79,2.23
	c5.63,3.35,9.6,8.28,12.6,14.01c4.75,9.09,5.1,18.56,2.24,28.25c-2.1,7.12-5.64,13.53-9.86,19.59
	c-5.44,7.82-11.89,14.75-18.75,21.33c-7.6,7.3-15.78,13.9-24.16,20.28c-3.03,2.3-6.11,4.52-9.16,6.8c-0.38,0.28-0.64,0.34-1.06,0.04
	c-9.79-7.1-19.39-14.45-28.41-22.52c-7.76-6.95-15.05-14.34-21.34-22.67c-4.83-6.4-8.96-13.2-11.58-20.83
	c-1.89-5.5-2.81-11.15-2.32-16.97c0.56-6.59,2.95-12.52,6.72-17.92c3.64-5.22,8.28-9.22,14.2-11.63c5.38-2.19,10.96-2.81,16.69-1.98
	c9.17,1.33,16.62,5.79,22.86,12.5C61.8-124.68,63.17-123.58,64.29-122.54z"/>
<path class="st5" d="M75.1-118.46c-0.09,0.02-0.18,0.04-0.27,0.07c0.06-0.08,0.12-0.16,0.19-0.24
	C75.05-118.58,75.08-118.52,75.1-118.46z"/>
<path class="st6" d="M93.12-46.36c-9.65-5.37-19.29-10.74-28.94-16.11c-9.05,5.83-18.11,11.65-27.16,17.48
	c2.59-10.56,5.18-21.11,7.77-31.67c-7.92-6.64-15.84-13.27-23.76-19.91c10.42-0.97,20.84-1.94,31.26-2.91
	c4.08-8.78,8.17-17.55,12.25-26.33c3.92,8.8,7.85,17.6,11.77,26.41c9.94,1.22,19.88,2.44,29.83,3.66
	c-7.49,6.41-14.99,12.81-22.48,19.22C86.81-66.47,89.96-56.42,93.12-46.36z"/>
<text transform="matrix(1 0 0 1 145.9333 -79.3997)" class="st8" style="font-family:'MyriadPro-Bold'; font-size:38.6125px;">USTAR CARE SERVICES</text>
<text transform="matrix(1.4159 0 0 1 149.5488 -47.5031)" style="opacity:0.99;fill:#40403F; font-family:'MyriadPro-Cond'; font-size:17.7607px;">THERE FOR YOU</text>
</svg>
